<svg width="654" height="651" viewBox="0 0 654 651" fill="none" xmlns="http://www.w3.org/2000/svg">
<circle cx="248.704" cy="402.297" r="248.704" fill="#4995FE"/>
<circle cx="248.704" cy="402.296" r="186.528" fill="#EDF5FE"/>
<circle cx="248.704" cy="402.297" r="124.352" fill="#FF0000"/>
<circle cx="248.704" cy="402.297" r="124.352" fill="#FF435A"/>
<circle cx="248.704" cy="402.296" r="62.1759" fill="#FF0000"/>
<circle cx="248.704" cy="402.296" r="62.1759" fill="#F8DFDF"/>
<path d="M536.428 195.34C539.08 195.34 541.624 194.287 543.499 192.412L636.929 98.9819C643.229 92.6823 638.767 81.9108 629.858 81.9108L570.212 81.9108C567.56 81.9108 565.016 82.9644 563.141 84.8398L469.711 178.269C463.412 184.569 467.873 195.34 476.783 195.34L536.428 195.34Z" fill="#FABE2D"/>
<path d="M461.787 118.212C461.787 115.56 462.84 113.016 464.716 111.141L558.145 17.7114C564.445 11.4118 575.217 15.8734 575.217 24.7825L575.217 84.4282C575.217 87.0803 574.163 89.6239 572.288 91.4992L478.858 184.929C472.558 191.229 461.787 186.767 461.787 177.858L461.787 118.212Z" fill="#FFDE46"/>
<circle cx="248.704" cy="403.54" r="12.4352" fill="#FF0000"/>
<circle cx="248.704" cy="403.54" r="12.4352" fill="black"/>
<circle cx="600.619" cy="51.6245" r="12.4352" fill="#FF0000"/>
<circle cx="600.619" cy="51.6245" r="12.4352" fill="black"/>
<g filter="url(#filter0_b_3_2)">
<line x1="597.546" y1="51.2345" x2="245.826" y2="402.954" stroke="black" stroke-width="20"/>
</g>
<defs>
<filter id="filter0_b_3_2" x="234.755" y="40.1634" width="373.862" height="373.862" filterUnits="userSpaceOnUse" color-interpolation-filters="sRGB">
<feFlood flood-opacity="0" result="BackgroundImageFix"/>
<feGaussianBlur in="BackgroundImage" stdDeviation="2"/>
<feComposite in2="SourceAlpha" operator="in" result="effect1_backgroundBlur_3_2"/>
<feBlend mode="normal" in="SourceGraphic" in2="effect1_backgroundBlur_3_2" result="shape"/>
</filter>
</defs>
</svg>
